<svg xmlns="http://www.w3.org/2000/svg" viewBox="0 0 24 24" width="240">
  <style>		
		.inner-logo {
		  fill: #107B10;
		  animation: scale 1s linear;
		  animation-fill-mode: both;
		  transform-origin: center center;
		}
		
		@keyframes scale {
		  from {
		    transform: scale(1);
		  }
		  to {
		    transform: scale(0);
		  }
		}
	</style>
  <circle class="inner-logo" cx="50%" cy="50%" r="10" />
  <path fill="#9da0a2" d="M5,4.9L5,4.9L5,4.9C3.1,6.8,2,9.3,2,12c0,2.2,0.7,4.3,2,6.1c0,0,0,0,0.1,0c0,0,0,0,0-0.1 C3.3,15.7,7.2,10,9.3,7.6c0,0,0,0,0,0c0,0,0,0,0,0C5.9,4.1,5,4.9,5,4.9 M19,4.9L19,4.9L19,4.9c1.9,1.9,3,4.4,3,7.1 c0,2.2-0.7,4.3-2,6.1c0,0,0,0-0.1,0c0,0,0,0,0-0.1c0.8-2.4-3.1-8.1-5.1-10.5c0,0,0,0,0,0c0,0,0,0,0,0C18.1,4.1,19,4.9,19,4.9 M12,2 c2,0,3.7,0.6,5.2,1.5c0,0,0,0,0,0c0,0,0,0,0,0C15.2,3.1,12.3,4.8,12,5c0,0,0,0,0,0c0,0,0,0,0,0c-0.7-0.4-3.5-1.8-5.2-1.4 c0,0,0,0,0,0c0,0,0,0,0,0C8.3,2.6,10,2,12,2 M12,10C12,10,12,10,12,10c3,2.3,8.1,7.9,6.6,9.5l0,0l0,0h0C16.8,21.1,14.4,22,12,22 c-2.4,0-4.8-0.9-6.6-2.5l0,0l0,0C3.9,17.9,9,12.3,12,10C12,10,12,10,12,10"/>
</svg>